<svg xmlns="http://www.w3.org/2000/svg" xmlns:xlink="http://www.w3.org/1999/xlink" viewBox="0 0 294 82.86"><defs><style>.cls-1{fill:url(#linear-gradient);}.cls-2{fill:url(#linear-gradient-2);}.cls-3{fill:url(#linear-gradient-3);}.cls-4{font-size:69px;fill:#3d63a8;font-family:NunitoSans-Regular, Nunito Sans;}.cls-5{letter-spacing:-0.06em;}</style><linearGradient id="linear-gradient" x1="22.66" y1="61.03" x2="60.81" y2="-0.59" gradientUnits="userSpaceOnUse"><stop offset="0" stop-color="#1a9bd7"/><stop offset="1" stop-color="#243c81"/></linearGradient><linearGradient id="linear-gradient-2" x1="0.65" y1="-9.72" x2="49.84" y2="65.72" xlink:href="#linear-gradient"/><linearGradient id="linear-gradient-3" x1="5.46" y1="-11.1" x2="75.71" y2="100.06" gradientUnits="userSpaceOnUse"><stop offset="0" stop-color="#339bd7"/><stop offset="0.16" stop-color="#3087c5"/><stop offset="0.49" stop-color="#285598"/><stop offset="0.64" stop-color="#243c81"/></linearGradient></defs><g id="Layer_2" data-name="Layer 2"><g id="Layer_1-2" data-name="Layer 1"><path class="cls-1" d="M64.89,5.15,51.71,32.88l-1.39,2.75a10.72,10.72,0,0,1-.81,1.07h0a10,10,0,0,1-17.1-3.76l.12-.25h0L38.2,20.74,45.65,5.08h0l.93-2h0a2.14,2.14,0,0,0,.13-.19A7.11,7.11,0,0,1,55.51.69h0Z"/><path class="cls-2" d="M50.32,35.63,42,53.12l-2.75,5.79h0l-.95,2h0a7.11,7.11,0,0,1-11.52.29h0s-1.2-2.43-1.17-2.33l-2.89-5.75L0,5.3,4.57,3.13,9.35.85h0a7,7,0,0,1,3.07-.7,7.11,7.11,0,0,1,5.87,3.11l.94,2L32.37,32.84h0l0,.1A10,10,0,0,0,49.5,36.7h0A10.72,10.72,0,0,0,50.32,35.63Z"/><path class="cls-3" d="M49.5,36.7c-11.7,23.47-17,16.78-17,16.78C18.89,23.77,10.16,9.53,4.57,3.13L9.35.85h0a7,7,0,0,1,3.07-.7,7.11,7.11,0,0,1,5.87,3.11l.94,2L32.37,32.84h0l0,.1A10,10,0,0,0,49.5,36.7Z"/><text class="cls-4" transform="matrix(1, 0, 0, 1, 51.3, 64.56)">ee<tspan class="cls-5" x="72.73" y="0">W</tspan><tspan x="144.83" y="0">ork</tspan></text></g></g></svg>